#!OML:ASF E:\basketball\basketball\Project 1\Capture day 1\Session 1\Subject.ASF
:FULLY-SPECIFIED
:DEGREES
17
root -35.0422 14.9365 -0.724164 53.1666 79.9309 45.8993
lowerback -0.223716 0.498408 -11.1056
upperback 3.7302 1.19583 -3.31618
thorax 3.91281 0.355928 2.78794
lowerneck -6.28651 -7.00379 -12.3219
upperneck -4.16774 -8.33417 20.754
head 1.3668 -3.82054 8.09707
rclavicle -1.78906e-014 2.8625e-014
rhumerus -46.7629 3.47403 -96.1012
rradius 97.0637
rwrist -55.4545
rhand -24.3323 31.7294
rfingers 7.12502
rthumb 2.15648 1.76056
lclavicle -1.78906e-014 2.8625e-014
lhumerus -26.5734 -33.991 107.307
lradius 94.1882
lwrist 19.0738
lhand -25.0398 29.5394
lfingers 7.12502
lthumb 1.47308 59.514
rfemur -24.7594 -8.70135 3.80234
rtibia 66.8532
rfoot -29.0005 -0.0883103
rtoes -19.4485
lfemur 1.22903 3.69211 -25.3777
ltibia 26.4593
lfoot -32.5185 10.0488
ltoes 0.0343511
18
root -34.9494 14.9255 -0.708494 53.775 79.6956 46.219
lowerback -0.119146 0.310644 -11.5215
upperback 3.79556 0.937283 -3.11099
thorax 3.95394 0.205123 3.22087
lowerneck -7.2359 -6.56343 -13.8538
upperneck -3.73394 -7.59222 22.4164
head 1.69029 -3.34658 8.9515
rclavicle 5.36719e-015 2.06736e-014
rhumerus -46.6401 2.944 -95.1091
rradius 97.7476
rwrist -55.143
rhand -24.9688 31.4809
rfingers 7.12502
rthumb 1.54171 1.50671
lclavicle 5.36719e-015 2.06736e-014
lhumerus -26.7654 -33.7552 107.826
lradius 93.6806
lwrist 18.779
lhand -24.6085 28.6005
lfingers 7.12502
lthumb 1.88969 58.5719
rfemur -25.2998 -9.22632 3.29977
rtibia 67.9762
rfoot -28.5729 1.24049
rtoes -19.5099
lfemur 1.26952 4.13552 -25.6001
ltibia 26.2882
lfoot -31.9247 11.7184
ltoes -7.53979
19
root -34.8634 14.8818 -0.694118 53.5911 79.5901 45.6547
lowerback -0.795679 0.0738057 -10.9371
upperback 4.27494 0.783261 -3.46103
thorax 4.87793 0.105476 2.53091
lowerneck -7.70797 -6.29743 -13.7705
upperneck -4.06499 -7.10685 23.131
head 1.62869 -3.06863 9.21359
rclavicle 1.72943e-014 2.54444e-014
rhumerus -45.7369 1.91066 -95.0158
rradius 98.37
rwrist -54.0933
rhand -23.7894 30.5595
rfingers 7.12502
rthumb 2.68079 0.596557
lclavicle 1.72943e-014 2.54444e-014
lhumerus -24.9966 -34.9686 106.668
lradius 92.4643
lwrist 18.7956
lhand -24.8479 28.4799
lfingers 7.12502
lthumb 1.65843 58.4532
rfemur -26.0873 -9.73411 3.04199
rtibia 69.176
rfoot -28.3336 2.06126
rtoes -21.0059
lfemur 1.4758 4.05638 -25.6331
ltibia 26.0855
lfoot -32.788 10.3696
ltoes -2.39321
20
root -34.7532 14.8779 -0.669888 51.8698 79.4997 43.6872
lowerback -0.94496 -0.0975881 -10.7887
upperback 4.43006 0.575174 -3.30515
thorax 5.15245 -0.0141599 2.60148
lowerneck -7.72656 -6.02403 -13.5521
upperneck -4.11307 -6.73218 22.823
head 1.52079 -2.89149 9.09855
rclavicle 3.00165e-014 8.74653e-015
rhumerus -45.6289 1.63643 -94.5026
rradius 99.077
rwrist -52.5906
rhand -23.7678 31.4965
rfingers 7.12502
rthumb 2.70162 1.53382
lclavicle 3.00165e-014 8.74653e-015
lhumerus -24.1335 -35.3544 106.549
lradius 91.4089
lwrist 18.9946
lhand -24.5584 27.7638
lfingers 7.12502
lthumb 1.93806 57.7347
rfemur -26.4679 -9.89991 3.08182
rtibia 70.0262
rfoot -28.0149 2.68413
rtoes -21.9935
lfemur 1.55311 4.49528 -25.4212
ltibia 26.0264
lfoot -32.2303 12.4165
ltoes -11.2738
21
root -34.6514 14.8623 -0.655413 52.9773 79.708 44.5145
lowerback -0.207655 -0.470386 -10.9456
upperback 4.02615 -0.0973676 -2.86459
thorax 4.38531 -0.324091 3.1225
lowerneck -7.6422 -5.64372 -13.8759
upperneck -3.54793 -6.29165 22.4993
head 1.57448 -2.67249 9.07754
rclavicle -1.15295e-014 -2.78299e-015
rhumerus -46.3039 1.73441 -93.5995
rradius 99.8926
rwrist -50.987
rhand -24.4601 32.5812
rfingers 7.12502
rthumb 2.03297 2.61118
lclavicle -1.15295e-014 -2.78299e-015
lhumerus -23.8524 -35.0501 107.28
lradius 90.466
lwrist 19.8459
lhand -23.3427 27.5557
lfingers 7.12502
lthumb 3.11218 57.5127
rfemur -26.7116 -10.6546 2.9401
rtibia 70.9414
rfoot -27.659 3.4563
rtoes -22.8192
lfemur 1.7168 4.48187 -25.2742
ltibia 25.7862
lfoot -31.8117 13.1311
ltoes -13.1782
22
root -34.5611 14.8318 -0.64105 54.039 79.9095 45.2356
lowerback 0.87454 -0.844684 -11.1131
upperback 3.34028 -0.847308 -2.35564
thorax 3.15434 -0.641149 3.74205
lowerneck -7.62176 -5.28171 -14.2896
upperneck -2.54964 -5.93225 22.1055
head 1.77503 -2.48425 9.03879
rclavicle -7.55382e-015 -3.61788e-014
rhumerus -47.1469 1.77179 -92.5146
rradius 101.073
rwrist -49.4312
rhand -25.245 32.2827
rfingers 7.12502
rthumb 1.27499 2.30677
lclavicle -7.55382e-015 -3.61788e-014
lhumerus -24.4863 -34.0961 108.114
lradius 89.7958
lwrist 20.5643
lhand -22.0058 27.1677
lfingers 7.12502
lthumb 4.40314 57.1019
rfemur -27.0634 -11.3997 2.77993
rtibia 71.8695
rfoot -27.2758 4.4312
rtoes -23.1292
lfemur 1.89663 4.37439 -25.0825
ltibia 25.5891
lfoot -31.9684 12.581
ltoes -7.20904
23
root -34.4589 14.787 -0.632378 54.7411 79.7345 45.6479
lowerback 1.12183 -1.1159 -11.1037
upperback 3.1464 -1.2707 -2.18966
thorax 2.87494 -0.837085 3.90766
lowerneck -7.63546 -5.02201 -14.2068
upperneck -2.00107 -5.66488 21.5661
head 1.85149 -2.35434 8.85567
rclavicle -1.14301e-014 -8.74653e-015
rhumerus -47.2217 1.61343 -91.8068
rradius 102.226
rwrist -47.1205
rhand -26.4547 32.4064
rfingers 7.12502
rthumb 0.106581 2.42665
lclavicle -1.14301e-014 -8.74653e-015
lhumerus -25.1984 -33.3512 108.369
lradius 89.4861
lwrist 21.1039
lhand -20.8229 26.0551
lfingers 7.12502
lthumb 5.54537 55.9626
rfemur -27.446 -11.9569 2.23626
rtibia 72.8554
rfoot -27.0568 5.64119
rtoes -22.9026
lfemur 2.28045 4.04238 -25.3416
ltibia 25.223
lfoot -32.8222 11.6896
ltoes -0.653461
24
root -34.3337 14.7473 -0.625982 54.5711 79.1176 45.2311
lowerback 0.850307 -1.28691 -11.1894
upperback 3.21042 -1.45308 -2.19063
thorax 3.12769 -0.94401 3.94168
lowerneck -7.41626 -4.72559 -13.9316
upperneck -1.98682 -5.29984 21.027
head 1.71743 -2.19973 8.65039
rclavicle -2.67365e-014 4.96962e-014
rhumerus -46.9968 1.49241 -91.2954
rradius 103.242
rwrist -44.3757
rhand -27.5694 33.1425
rfingers 7.12502
rthumb -0.970073 3.16495
lclavicle -2.67365e-014 4.96962e-014
lhumerus -25.2061 -32.9102 108.176
lradius 88.8968
lwrist 21.9137
lhand -19.5403 24.9911
lfingers 7.12502
lthumb 6.78357 54.8624
rfemur -27.8205 -12.272 1.3587
rtibia 73.7731
rfoot -26.9791 6.86676
rtoes -23.8963
lfemur 2.71613 3.93377 -26.0384
ltibia 24.8296
lfoot -33.321 12.6491
ltoes -4.55774
25
root -34.196 14.7132 -0.620078 52.8806 78.6559 43.1296
lowerback 0.515878 -1.44978 -11.0373
upperback 3.12152 -1.64731 -1.98954
thorax 3.25197 -1.04713 4.05527
lowerneck -7.27216 -4.37473 -13.6528
upperneck -1.78276 -4.87993 20.3197
head 1.63672 -2.01331 8.38913
rclavicle -1.2921e-014 -2.34566e-014
rhumerus -46.4272 1.35458 -90.6332
rradius 104.118
rwrist -41.5724
rhand -27.8687 32.6595
rfingers 7.12502
rthumb -1.25913 2.6835
lclavicle -1.2921e-014 -2.34566e-014
lhumerus -23.4906 -33.7562 107.455
lradius 87.6485
lwrist 23.3234
lhand -18.9675 25.6372
lfingers 7.12502
lthumb 7.33651 55.49
rfemur -28.3367 -12.5173 0.918495
rtibia 74.6223
rfoot -26.5903 7.9879
rtoes -25.6073
lfemur 3.08226 3.88478 -26.4333
ltibia 24.3886
lfoot -33.3182 14.9367
ltoes -13.0349
26
root -34.0967 14.6903 -0.591167 54.2468 78.834 43.8307
lowerback 0.70554 -1.85949 -11.1485
upperback 2.82162 -2.26488 -1.57078
thorax 2.94504 -1.34414 4.54639
lowerneck -7.55667 -4.05014 -13.3024
upperneck -1.15252 -4.51372 19.4428
head 1.75625 -1.82706 8.04957
rclavicle -4.82053e-015 1.61016e-014
rhumerus -45.9967 1.21197 -90.0061
rradius 105.094
rwrist -38.5882
rhand -27.614 32.2612
rfingers 7.12502
rthumb -1.01309 2.28382
lclavicle -4.82053e-015 1.61016e-014
lhumerus -23.0254 -33.4512 107.216
lradius 86.8695
lwrist 23.7343
lhand -18.1797 25.8731
lfingers 7.12502
lthumb 8.09691 55.6979
rfemur -28.928 -13.4954 0.992096
rtibia 75.4397
rfoot -26.1018 8.6587
rtoes -26.3567
lfemur 3.05034 4.39663 -26.081
ltibia 23.8793
lfoot -32.7638 15.4933
ltoes -18.7608
27
root -33.9559 14.6226 -0.580207 50.6234 78.1829 40.2589
lowerback 0.738566 -1.8779 -10.834
upperback 2.84979 -2.30246 -1.45273
thorax 2.9505 -1.36069 4.4953
lowerneck -7.54345 -3.69677 -13.1108
upperneck -0.785538 -4.09057 19.0216
head 1.76726 -1.62261 7.8995
rclavicle -1.99282e-014 1.86858e-014
rhumerus -45.5918 1.58597 -89.828
rradius 106.41
rwrist -36.0139
rhand -28.0709 33.3697
rfingers 7.12502
rthumb -1.45435 3.39488
lclavicle -1.99282e-014 1.86858e-014
lhumerus -23.3781 -32.6229 107.035
lradius 86.1731
lwrist 23.297
lhand -17.7577 25.3307
lfingers 7.12502
lthumb 8.50416 55.1395
rfemur -29.0285 -13.4979 0.652259
rtibia 76.2256
rfoot -26.0459 9.46407
rtoes -26.6387
lfemur 4.14872 4.71463 -26.2551
ltibia 23.427
lfoot -33.8501 14.9677
ltoes -15.367
28
root -33.8358 14.5477 -0.56283 48.407 77.6514 37.9251
lowerback 0.943968 -1.96162 -10.7317
upperback 2.74154 -2.46368 -1.1861
thorax 2.75211 -1.43298 4.72288
lowerneck -7.24587 -3.31922 -13.1172
upperneck -0.703417 -3.61059 18.609
head 1.64683 -1.40977 7.7923
rclavicle 1.39149e-014 -3.74709e-014
rhumerus -44.788 2.1734 -89.5903
rradius 107.247
rwrist -33.117
rhand -28.6701 34.8966
rfingers 7.12502
rthumb -2.03314 4.92652
lclavicle 1.39149e-014 -3.74709e-014
lhumerus -23.9302 -31.7126 107.046
lradius 85.4922
lwrist 22.2117
lhand -17.8544 24.6526
lfingers 7.12502
lthumb 8.41089 54.4652
rfemur -29.3657 -13.6095 0.361648
rtibia 77.094
rfoot -25.8632 10.2655
rtoes -26.9535
lfemur 4.97656 4.78791 -26.3874
ltibia 22.9617
lfoot -35.0949 12.2017
ltoes -4.15563
29
root -33.7091 14.5071 -0.544232 47.4456 77.1988 36.8091
lowerback 0.286519 -2.1094 -10.0874
upperback 3.33491 -2.52308 -1.47658
thorax 3.71153 -1.49974 4.01871
lowerneck -7.22021 -3.07113 -12.428
upperneck -1.32812 -3.23635 18.327
head 1.38382 -1.23904 7.59691
rclavicle 5.0541e-014 -5.96354e-015
rhumerus -42.7189 2.1312 -90.045
rradius 108.033
rwrist -29.1781
rhand -28.8259 34.6533
rfingers 7.12502
rthumb -2.18354 4.6847
lclavicle 5.0541e-014 -5.96354e-015
lhumerus -23.558 -31.7451 105.726
lradius 84.7888
lwrist 21.5399
lhand -18.7526 23.8522
lfingers 7.12502
lthumb 7.54396 53.6977
rfemur -29.4431 -13.8227 -0.068671
rtibia 77.7352
rfoot -25.6374 11.1839
rtoes -27.0818
lfemur 5.64547 5.44602 -26.5092
ltibia 22.6476
lfoot -34.7527 12.4888
ltoes -6.70395
